<svg xmlns="http://www.w3.org/2000/svg" width="20" height="20" viewBox="0 0 488 512">
  <path fill="#4285F4" d="M488 261.8c0-17.4-1.5-34.1-4.3-50.2H249v95.1h135.8c-5.9 31.5-23.8 58.3-50.7 76v62.9h82.1c48-44.2 71.8-109.3 71.8-183.8z"/>
  <path fill="#34A853" d="M249 492c66.3 0 121.9-21.9 162.5-59.6l-82.1-62.9c-22.8 15.3-51.9 24.3-80.4 24.3-61.7 0-113.8-41.6-132.4-97.4H33.7v61.2C74.8 435.1 155.3 492 249 492z"/>
  <path fill="#FBBC05" d="M116.6 296.4c-5.3-15.9-8.4-32.8-8.4-50.4s3.1-34.5 8.4-50.4v-61.2H33.7C12.1 173.3 0 209.1 0 246s12.1 72.7 33.7 111.6l82.9-61.2z"/>
  <path fill="#EA4335" d="M249 99.8c36 0 68.4 12.4 93.9 36.7l70.5-70.5C371.1 30.9 317.4 8 249 8 155.3 8 74.8 64.9 33.7 134.4l82.9 61.2C135.2 141.4 187.3 99.8 249 99.8z"/>
</svg>
